<svg width="70" height="70" fill="none" xmlns="http://www.w3.org/2000/svg"><path fill-rule="evenodd" clip-rule="evenodd" d="M28.438 52.5a24.063 24.063 0 100-48.127 24.063 24.063 0 000 48.127zm28.437-24.063a28.437 28.437 0 11-56.874 0 28.437 28.437 0 0156.874 0z" fill="#fff"/><path d="M45.255 51.371c.131.175.271.342.429.503l16.844 16.844a4.376 4.376 0 106.19-6.186L51.874 45.688a4.407 4.407 0 00-.503-.437 28.605 28.605 0 01-6.116 6.125v-.005z" fill="#fff"/><path fill-rule="evenodd" clip-rule="evenodd" d="M28.438 13.125a2.188 2.188 0 012.187 2.188V26.25h10.938a2.188 2.188 0 010 4.375H30.624v10.938a2.188 2.188 0 01-4.375 0V30.624H15.312a2.188 2.188 0 010-4.375H26.25V15.312a2.188 2.188 0 012.188-2.187z" fill="#fff"/></svg>