<?xml version="1.0" standalone="no"?>
<!DOCTYPE svg PUBLIC "-//W3C//DTD SVG 20010904//EN"
 "http://www.w3.org/TR/2001/REC-SVG-20010904/DTD/svg10.dtd">
<svg version="1.0" xmlns="http://www.w3.org/2000/svg"
 width="820.000000pt" height="560.000000pt" viewBox="0 0 820.000000 560.000000"
 preserveAspectRatio="xMidYMid meet">
<metadata>
Created by potrace 1.16, written by Peter Selinger 2001-2019
</metadata>
<g transform="translate(0.000000,560.000000) scale(0.100000,-0.100000)"
fill="#000000" stroke="none">
<path d="M4274 4961 c-186 -44 -339 -127 -649 -351 -395 -287 -547 -339 -796
-276 -183 46 -325 129 -464 270 -88 88 -141 159 -196 259 -24 44 -27 47 -32
25 -15 -54 -19 -297 -8 -397 31 -261 112 -448 266 -609 147 -155 298 -235 570
-302 104 -26 144 -40 132 -45 -19 -8 -169 0 -217 11 -22 5 -20 1 15 -31 56
-50 218 -129 308 -151 l77 -18 0 -63 c0 -41 -10 -98 -29 -162 -16 -54 -39
-153 -50 -221 -12 -68 -23 -125 -25 -128 -2 -2 -14 2 -27 8 -33 18 -110 7
-153 -22 l-37 -26 -62 19 c-100 30 -497 120 -556 126 -35 4 -52 3 -50 -4 2 -6
47 -46 99 -89 559 -458 1182 -1146 1885 -2079 165 -220 194 -246 242 -229 16
5 88 78 171 172 l143 162 -30 62 c-28 58 -50 158 -51 232 0 28 0 28 45 21 65
-9 117 19 223 120 48 45 119 101 157 125 274 167 534 416 708 680 70 106 167
288 167 313 0 8 -68 88 -152 179 l-152 166 -1 183 c-1 249 -31 366 -128 508
-21 29 -37 61 -37 70 0 9 -11 52 -25 96 l-25 80 65 130 c80 161 114 276 122
410 15 277 -124 496 -409 645 -71 38 -198 90 -216 90 -5 0 2 -30 14 -67 37
-106 34 -109 -43 -59 -97 62 -215 119 -313 151 -75 25 -103 28 -240 31 -125 3
-171 0 -236 -15z m389 -140 c43 -11 115 -38 160 -59 78 -37 207 -125 207 -141
0 -5 -37 7 -82 25 -137 55 -214 69 -383 69 -165 -1 -247 -17 -383 -75 -98 -41
-270 -146 -259 -157 2 -1 43 13 91 32 195 79 442 117 624 97 200 -22 352 -80
498 -190 141 -107 265 -261 315 -395 l24 -62 8 75 c10 85 -4 261 -28 355 -21
81 -75 193 -116 240 l-34 39 34 -20 c56 -32 154 -137 189 -202 50 -93 65 -184
53 -306 -15 -148 -42 -230 -97 -295 l-26 -32 -43 75 c-67 119 -132 205 -219
291 -225 224 -505 320 -857 294 -291 -22 -520 -127 -710 -326 -89 -93 -145
-176 -205 -303 -25 -52 -49 -102 -53 -110 -13 -25 -116 -41 -236 -36 -130 5
-243 35 -368 97 -85 43 -201 119 -193 127 3 2 47 -6 98 -19 126 -31 386 -34
493 -5 144 39 144 44 -6 44 -292 1 -448 47 -628 185 -63 49 -148 148 -195 227
-52 88 -51 96 1 53 182 -151 431 -244 653 -246 212 -2 345 63 794 386 232 168
386 250 528 282 84 20 249 13 351 -14z m60 -505 c249 -74 437 -234 584 -496
37 -65 106 -230 100 -236 -3 -3 -28 24 -56 60 -72 91 -205 212 -291 266 -39
25 -107 77 -151 117 -175 157 -413 228 -678 203 -192 -18 -321 -62 -462 -156
-74 -50 -79 -52 -53 -22 115 132 297 235 495 277 79 18 121 20 259 17 142 -3
177 -7 253 -30z m-53 -376 c242 -59 481 -235 646 -476 49 -71 53 -79 37 -89
-26 -14 -238 -12 -299 3 -49 13 -53 16 -69 60 -47 128 -174 282 -288 350 -160
96 -400 125 -632 76 -133 -28 -135 -28 -83 0 180 98 467 129 688 76z m-395
-454 c50 -13 225 -70 390 -125 361 -120 427 -134 584 -129 99 3 125 8 181 32
98 41 94 41 114 -1 63 -131 85 -283 67 -469 l-12 -125 97 -105 c53 -57 95
-107 92 -110 -3 -2 -77 19 -164 48 l-159 53 -17 70 c-10 39 -17 73 -15 77 1 4
23 -6 50 -22 26 -17 47 -28 47 -25 0 3 -22 38 -49 78 -44 65 -53 73 -96 85
-119 32 -349 166 -490 285 -33 28 -67 56 -75 63 -13 11 -32 3 -115 -46 l-100
-58 -35 26 c-19 15 -112 88 -206 163 -193 154 -275 212 -340 240 -24 11 -44
23 -44 26 0 14 211 -8 295 -31z m-229 -126 c32 -16 168 -116 300 -222 397
-317 571 -437 794 -550 189 -96 464 -197 663 -243 42 -10 77 -24 77 -30 0 -18
-90 -168 -160 -267 -119 -169 -353 -394 -533 -515 l-69 -46 -31 23 c-211 153
-623 546 -776 740 -275 347 -366 563 -290 686 42 68 160 88 282 46 l58 -20
-18 20 c-32 36 -216 184 -280 225 -91 59 -119 69 -156 55 -17 -6 -33 -10 -35
-7 -12 12 13 81 38 107 36 36 62 35 136 -2z m-1296 -684 c636 -241 1188 -690
1578 -1285 73 -112 208 -358 200 -366 -2 -2 -37 26 -78 62 -167 149 -424 343
-658 499 -57 37 -100 70 -95 71 23 8 198 -53 298 -102 l110 -55 -170 171
c-425 427 -847 765 -1266 1016 -30 18 -49 32 -44 33 6 0 62 -20 125 -44z
m2092 -1164 c76 -64 138 -118 138 -122 0 -11 -161 -152 -167 -146 -3 3 3 34
14 68 l21 62 -81 75 c-99 93 -205 220 -279 332 -92 140 -87 139 68 -10 82 -79
211 -196 286 -259z"/>
<path d="M4940 2447 c-88 -130 -258 -313 -303 -325 l-27 -7 53 -53 53 -53 110
113 c97 100 196 219 248 300 l18 27 -51 25 c-28 14 -54 26 -58 26 -4 0 -24
-24 -43 -53z"/>
<path d="M5146 2380 c-66 -112 -324 -390 -362 -390 -41 0 -35 -18 21 -65 l54
-47 68 61 c69 62 154 153 228 245 55 69 125 167 125 177 0 9 -86 49 -104 49
-6 0 -20 -14 -30 -30z"/>
<path d="M5338 2293 c-88 -144 -376 -443 -426 -443 -25 0 -24 -3 28 -50 30
-27 58 -49 61 -50 16 -1 199 173 277 264 87 101 202 256 202 273 0 9 -85 43
-107 43 -6 0 -22 -17 -35 -37z"/>
<path d="M5524 2197 c-70 -107 -158 -209 -285 -332 -68 -65 -140 -125 -161
-135 l-39 -17 56 -43 c30 -23 60 -40 67 -37 29 12 212 183 289 269 76 86 202
255 228 305 10 20 7 22 -36 37 -26 9 -54 16 -62 16 -9 0 -34 -28 -57 -63z"/>
</g>
</svg>
