<?xml version="1.0" standalone="no"?>
<!DOCTYPE svg PUBLIC "-//W3C//DTD SVG 20010904//EN"
 "http://www.w3.org/TR/2001/REC-SVG-20010904/DTD/svg10.dtd">
<svg version="1.0" xmlns="http://www.w3.org/2000/svg"
 width="600.000000pt" height="600.000000pt" viewBox="0 0 600.000000 600.000000"
 preserveAspectRatio="xMidYMid meet">
<metadata>
Created by potrace 1.16, written by Peter Selinger 2001-2019
</metadata>
<g transform="translate(0.000000,600.000000) scale(0.100000,-0.100000)"
fill="#000000" stroke="none">
<path d="M3156 4949 c-29 -28 -42 -48 -38 -61 2 -10 -1 -18 -7 -18 -6 0 -11
17 -11 40 0 22 -3 40 -7 40 -11 0 -83 -113 -83 -129 0 -8 7 -10 21 -6 20 7 21
5 15 -25 -3 -18 -6 -37 -6 -41 0 -5 -17 2 -37 15 -41 27 -104 44 -141 38 -29
-4 -48 -43 -57 -115 -4 -32 -9 -56 -11 -54 -9 9 -41 153 -37 164 3 7 0 13 -5
13 -6 0 -25 25 -42 55 -17 30 -37 56 -43 57 -33 5 -135 2 -131 -4 2 -3 -10
-11 -26 -17 -25 -8 -36 -7 -63 9 -43 26 -57 25 -57 -5 0 -14 -4 -25 -10 -25
-5 0 -10 -7 -10 -15 0 -8 5 -15 11 -15 7 0 -6 -13 -27 -28 -38 -28 -39 -28
-45 -8 -4 14 0 26 13 36 11 9 17 25 16 40 -2 16 2 24 10 23 6 -2 12 2 12 8 0
6 -7 9 -15 5 -10 -3 -15 1 -15 13 0 26 -26 47 -33 27 -4 -9 -14 -12 -28 -9
-20 5 -21 3 -15 -18 4 -13 10 -42 13 -63 5 -34 4 -38 -10 -33 -11 4 -17 1 -17
-8 0 -19 -31 -19 -56 0 -32 24 -40 18 -36 -27 5 -49 17 -67 33 -51 19 19 49 3
49 -27 0 -21 -7 -30 -30 -40 -17 -7 -30 -20 -30 -29 0 -10 17 -46 38 -82 22
-35 42 -78 45 -95 l6 -31 -44 5 c-31 3 -52 0 -70 -12 -24 -16 -27 -15 -55 6
-30 22 -39 38 -20 38 6 0 10 5 10 12 0 6 11 26 24 43 30 39 42 80 26 90 -6 4
-18 1 -26 -6 -12 -10 -19 -8 -39 11 l-23 22 -17 -32 c-11 -21 -21 -30 -31 -26
-9 3 -17 6 -19 6 -2 0 -1 9 2 20 4 15 0 20 -16 20 -25 0 -27 -12 -6 -30 8 -7
15 -20 15 -29 0 -10 6 -26 14 -36 10 -14 11 -23 3 -37 -9 -14 -8 -21 4 -34 15
-14 15 -19 -2 -52 -28 -54 -32 -55 -83 -31 -49 24 -52 29 -35 60 13 25 2 79
-16 79 -7 0 -19 10 -27 22 -14 21 -14 21 -43 2 -16 -10 -26 -14 -22 -7 9 14
-22 33 -52 33 -12 0 -21 7 -21 15 0 32 -86 49 -109 21 -7 -8 -9 -25 -5 -40 5
-21 3 -25 -9 -20 -8 3 -18 1 -22 -5 -3 -6 0 -9 8 -5 8 3 18 1 22 -5 3 -6 -1
-11 -11 -11 -16 0 -16 -1 2 -15 18 -14 18 -14 -6 -16 l-25 -1 25 -7 c23 -6 37
-32 39 -73 1 -15 -8 -18 -56 -19 -32 0 -76 -6 -97 -12 -36 -11 -39 -15 -40
-50 -1 -20 3 -38 9 -40 6 -2 6 -12 -2 -28 -11 -24 -11 -24 -20 10 -13 51 -35
60 -81 36 -27 -15 -37 -26 -37 -45 0 -18 6 -26 22 -28 23 -3 53 -37 53 -59 0
-7 -9 -13 -20 -13 -41 0 -19 -53 25 -62 12 -2 21 -13 23 -27 3 -20 8 -22 33
-17 25 5 35 1 53 -21 23 -26 26 -27 73 -17 l49 10 -4 -28 c-4 -24 -9 -28 -37
-28 -18 0 -43 -9 -56 -19 -25 -20 -25 -19 6 -93 6 -15 1 -18 -33 -18 -32 0
-47 -7 -71 -30 -16 -17 -28 -37 -25 -45 3 -7 1 -22 -5 -32 -6 -10 -11 -13 -11
-7 0 6 -6 11 -12 12 -7 0 -28 4 -45 7 -26 5 -33 3 -33 -9 0 -9 7 -16 15 -16 8
0 15 -6 15 -13 0 -7 -11 -13 -27 -12 -20 0 -33 -9 -48 -32 -15 -25 -27 -32
-51 -33 -39 0 -95 -37 -112 -73 -32 -67 -23 -151 23 -205 21 -25 23 -31 9 -36
-8 -3 -35 6 -60 20 -51 30 -79 26 -68 -8 4 -13 11 -26 17 -29 15 -10 -3 -31
-22 -26 -18 4 -18 4 -27 -81 -11 -96 57 -219 130 -238 25 -6 123 7 176 24 8 2
1 -7 -16 -22 -50 -41 -58 -72 -50 -201 6 -111 6 -113 -15 -108 -14 4 -17 9
-10 16 13 13 14 54 2 62 -5 3 -12 1 -16 -5 -3 -5 -15 -10 -26 -10 -25 0 -24
-25 1 -43 20 -14 20 -15 -11 -21 -18 -3 -33 -5 -35 -4 -1 2 -4 27 -5 57 -2 41
1 55 14 62 22 13 22 37 0 61 -16 18 -16 20 12 43 25 21 28 26 15 35 -11 7 -18
5 -26 -5 -7 -10 -14 -11 -21 -4 -19 19 -57 5 -80 -30 -31 -45 -30 -77 3 -94
22 -12 23 -15 10 -26 -11 -9 -24 -10 -53 -2 -49 14 -93 14 -93 0 0 -5 -5 -7
-10 -4 -15 9 -12 -7 5 -31 8 -12 12 -23 10 -26 -3 -2 9 -3 25 0 38 6 50 22 15
22 -22 0 -24 3 -16 18 7 14 18 17 45 14 45 -5 51 -15 30 -47 -24 -36 -114 -60
-114 -29 0 8 -5 12 -11 8 -7 -4 -6 -11 5 -22 13 -13 23 -14 56 -5 22 5 40 9
40 7 0 -2 -7 -29 -15 -61 -19 -73 -20 -222 -2 -247 19 -25 28 -19 151 102 77
76 108 114 119 145 l14 42 17 -60 c23 -77 64 -168 108 -237 20 -30 39 -69 42
-86 4 -17 14 -36 22 -43 10 -8 11 -15 3 -25 -6 -7 -9 -28 -7 -46 2 -27 8 -34
28 -36 32 -4 56 -64 34 -83 -22 -18 -17 -48 10 -55 18 -4 26 -15 31 -42 4 -20
13 -44 20 -55 10 -15 10 -26 -1 -65 -24 -79 -29 -174 -11 -209 21 -40 95 -76
169 -81 51 -4 59 -2 82 22 13 15 27 44 31 64 9 57 18 67 43 51 27 -17 36 -39
17 -39 -8 0 -15 -4 -15 -8 0 -19 27 -32 65 -32 28 0 47 -6 58 -18 15 -16 15
-19 -6 -32 -12 -7 -38 -14 -57 -14 -31 -1 -35 -4 -38 -29 -3 -22 6 -37 36 -67
22 -22 47 -40 55 -40 21 0 65 59 73 97 7 33 40 48 83 36 12 -3 21 -1 21 6 0 6
11 11 24 11 18 0 25 -7 29 -29 8 -41 41 -49 79 -21 28 21 30 21 43 3 8 -10 17
-33 21 -50 5 -25 11 -33 28 -33 19 0 19 -2 -8 -24 l-30 -23 49 -16 c27 -10 62
-17 78 -17 26 0 28 3 23 24 -4 15 0 28 9 36 8 7 15 20 15 29 0 27 15 41 37 35
15 -4 19 -11 15 -26 -8 -31 30 -19 46 15 17 35 35 36 21 1 l-10 -27 63 7 c34
4 77 14 95 21 70 30 121 113 159 262 27 106 44 290 26 279 -19 -12 -24 15 -6
35 9 10 13 19 9 19 -5 0 -4 5 3 12 17 17 16 88 -2 88 -8 0 -16 3 -18 8 -1 4
-29 24 -60 44 -77 50 -149 140 -204 253 -50 102 -88 215 -73 215 5 0 26 -7 46
-15 174 -73 380 38 441 237 17 54 32 67 32 29 0 -31 59 -141 99 -184 62 -67
139 -101 231 -101 57 -1 87 5 124 22 27 12 51 20 54 18 7 -8 -17 -94 -48 -174
-54 -134 -137 -241 -237 -308 l-56 -37 6 -156 c10 -252 54 -416 133 -498 l42
-45 32 17 c31 16 31 16 20 -5 -14 -26 -15 -26 38 -33 47 -6 50 -2 25 33 -17
25 -17 25 15 -2 47 -39 67 -43 113 -19 38 20 41 20 65 4 25 -16 28 -15 79 12
29 16 51 33 49 37 -3 5 -10 6 -15 3 -5 -4 -9 -2 -9 4 0 5 5 13 10 16 6 3 10 0
10 -7 0 -7 9 1 20 17 11 17 20 25 20 20 0 -6 -7 -20 -15 -32 -10 -14 -12 -24
-5 -28 20 -12 9 -34 -25 -50 -38 -19 -95 -99 -95 -134 0 -20 4 -22 25 -17 20
5 25 3 25 -14 0 -30 26 -24 40 10 8 18 10 47 5 80 l-7 50 41 0 c34 0 41 3 41
19 0 11 5 23 10 26 17 11 11 43 -10 50 -11 3 -20 10 -20 15 0 14 30 20 56 10
34 -13 100 -13 126 1 17 9 19 19 16 62 -3 50 -2 52 27 57 24 4 30 10 30 32 1
15 9 35 18 46 9 10 17 25 17 33 0 8 9 2 21 -13 20 -27 22 -27 50 -13 16 9 36
27 45 40 9 14 20 25 24 25 4 0 19 -18 34 -40 31 -46 56 -51 84 -15 20 25 23
25 106 19 70 -6 90 -4 110 10 35 23 67 88 73 152 5 49 3 55 -24 82 -21 22 -43
31 -81 37 -29 4 -52 9 -52 13 0 3 7 13 16 23 19 21 36 143 24 174 -5 12 -21
31 -37 43 l-28 21 27 10 c43 16 128 17 140 0 8 -12 9 -11 5 2 -4 12 14 22 84
44 74 23 89 31 84 45 -7 20 17 34 33 18 13 -13 32 -2 32 20 0 13 -2 13 -15 -4
-14 -18 -14 -18 -15 5 0 24 -1 24 -14 5 -8 -10 -18 -16 -21 -12 -16 16 -91
244 -84 253 4 6 11 30 15 53 4 23 8 42 11 42 2 0 17 -7 33 -15 28 -15 30 -14
30 5 0 11 5 20 10 20 18 0 10 20 -12 31 -22 9 -23 16 -23 111 1 71 4 103 13
106 7 2 10 13 6 28 -4 17 -2 24 8 24 21 0 94 55 114 85 16 24 16 27 -1 45 -9
10 -39 26 -66 35 -27 9 -49 18 -49 21 0 2 12 26 28 54 24 43 25 52 14 71 -19
30 -9 34 38 15 22 -9 52 -16 66 -16 23 0 25 3 20 24 -4 18 -1 28 11 35 23 13
8 28 -32 33 -25 2 -29 7 -27 27 4 22 1 24 -32 18 -45 -7 -46 5 -1 44 19 17 35
37 35 44 0 22 -53 54 -101 61 -50 8 -68 26 -69 67 0 68 -58 115 -128 103 -35
-5 -39 -3 -49 25 -11 28 -10 31 27 55 45 30 60 60 63 129 2 47 4 51 35 60 38
11 42 25 7 25 -34 0 -82 -26 -89 -47 -4 -12 -16 -18 -36 -18 -24 0 -31 5 -35
27 -6 26 -56 78 -76 78 -5 0 -9 15 -9 34 0 73 -39 117 -70 79 -13 -16 -22 -17
-57 -9 -44 9 -54 20 -28 30 8 3 15 17 15 30 0 20 -9 30 -44 46 -25 11 -49 20
-54 20 -5 0 -8 30 -8 68 l1 67 -32 0 c-27 0 -32 4 -37 28 -3 16 -15 42 -27 58
l-20 29 44 19 c55 24 63 35 43 66 -11 17 -32 27 -72 35 -70 15 -127 7 -224
-31 -90 -35 -90 -35 -90 -6 0 14 -3 18 -8 10 -8 -13 -67 59 -97 118 -9 16 -18
29 -22 29 -10 0 -95 -50 -145 -87 -44 -32 -47 -33 -53 -13 -11 36 -64 80 -97
80 -38 0 -158 -32 -158 -42 0 -4 -4 -8 -9 -8 -4 0 -11 19 -14 42 -6 44 -36 81
-75 93 -17 5 -31 -2 -66 -36z m949 -189 c3 -6 -3 -24 -15 -40 -24 -33 -25 -31
49 -50 23 -6 41 -13 40 -15 -2 -2 -32 -13 -67 -24 l-63 -22 -62 33 c-43 23
-63 40 -65 55 -4 25 14 37 90 57 65 18 85 19 93 6z m-2405 -235 c11 -13 8 -15
-19 -15 -28 0 -31 -3 -31 -30 0 -25 4 -30 24 -30 30 0 42 16 26 35 -10 12 -9
15 7 15 14 0 31 -21 60 -77 22 -43 43 -90 47 -105 10 -44 -16 -34 -39 15 -25
53 -65 65 -65 20 l-1 -28 -20 25 c-30 36 -67 101 -74 133 -6 23 -4 27 13 27
11 0 25 7 32 15 7 8 16 15 20 15 4 0 13 -7 20 -15z m-132 -159 c37 -19 76 -62
67 -75 -3 -6 24 -40 60 -76 40 -38 64 -69 59 -76 -5 -8 -10 -6 -16 5 -6 11
-20 16 -36 15 -15 -2 -33 0 -40 5 -7 4 -24 5 -37 2 -54 -14 -173 187 -122 207
21 9 37 7 65 -7z m377 -72 c14 -9 33 -14 43 -12 23 6 49 -27 28 -35 -7 -3 -19
-1 -27 5 -11 7 -9 8 6 3 16 -5 18 -4 8 6 -17 17 -29 4 -37 -39 -3 -21 -2 -31
4 -27 6 3 10 -2 10 -12 0 -11 4 -23 8 -28 4 -6 5 -30 2 -55 -4 -37 -7 -41 -13
-23 -5 12 -23 31 -41 42 -28 18 -34 28 -39 68 -3 27 -9 62 -13 80 -5 25 -3 32
12 36 11 3 20 5 22 6 1 0 14 -6 27 -15z m915 -953 c0 -21 47 -66 79 -76 13 -4
50 10 106 40 47 25 92 45 99 45 7 0 21 -9 30 -19 12 -14 30 -19 61 -19 37 1
47 -4 76 -37 36 -40 53 -65 47 -69 -1 -1 -30 -16 -63 -32 -67 -33 -162 -116
-207 -182 l-30 -44 -20 34 c-49 82 -161 175 -258 214 -42 18 -56 29 -62 50 -9
33 -3 44 21 44 10 0 31 16 45 35 31 40 76 49 76 16z m-1598 -77 l37 -26 -32
-38 c-22 -27 -35 -36 -43 -29 -7 6 -15 6 -17 2 -10 -16 0 -82 14 -99 12 -15
11 -16 -9 -10 -21 7 -22 5 -16 -18 l6 -25 -74 4 c-40 2 -76 4 -80 4 -20 2 -78
66 -88 97 -16 48 -6 54 15 9 21 -43 53 -69 71 -55 6 6 19 8 27 4 12 -4 21 4
34 30 9 20 20 36 25 36 4 0 8 9 8 20 0 11 6 20 13 20 12 0 23 17 49 73 7 15
15 27 17 27 3 0 22 -12 43 -26z m-232 -548 c0 -19 -11 -58 -25 -88 -41 -88
-32 -100 28 -35 58 62 87 73 87 32 0 -56 -58 -130 -167 -214 -37 -28 -44 -30
-49 -16 -11 28 3 146 27 220 33 108 99 175 99 101z m3745 -73 c0 -16 5 -36 11
-44 24 -31 25 -39 5 -39 -14 0 -21 6 -21 20 0 27 -11 25 -43 -8 -27 -28 -36
-63 -23 -94 6 -12 -2 -23 -28 -40 -20 -13 -36 -29 -36 -35 0 -7 -7 -13 -14
-13 -13 0 -13 5 -2 33 8 17 12 46 9 64 -4 25 -1 32 16 38 20 6 35 37 31 66 -4
29 0 39 18 39 9 0 26 11 36 25 24 32 41 27 41 -12z m-311 -478 c20 -8 36 -20
36 -25 0 -7 6 -7 19 0 31 16 38 11 12 -10 -19 -16 -20 -21 -8 -26 9 -3 25 -1
36 6 25 13 26 8 6 -30 -9 -16 -27 -33 -40 -36 -29 -7 -55 -46 -36 -52 6 -2 11
-10 11 -17 0 -8 9 -20 20 -28 11 -8 17 -17 13 -20 -3 -4 0 -7 8 -7 8 0 27 -18
42 -40 31 -44 39 -47 57 -25 7 8 19 15 26 15 7 0 11 6 9 13 -3 6 4 18 15 25
18 11 20 10 20 -18 0 -42 -47 -92 -91 -96 -19 -2 -48 -6 -66 -10 -29 -5 -31
-4 -26 15 4 17 2 20 -12 15 -14 -6 -16 -4 -9 12 13 28 10 67 -5 72 -9 3 -12 0
-9 -10 4 -9 0 -15 -8 -15 -17 0 -18 19 -3 34 8 8 1 16 -24 28 -24 11 -34 22
-30 31 3 8 -2 23 -11 33 -14 15 -14 20 -4 25 10 5 10 7 1 12 -9 4 -5 15 13 39
26 34 26 62 2 93 -13 16 -8 15 36 -3z m-2693 -360 c23 -25 44 -43 46 -41 3 3
-10 18 -29 35 l-33 31 30 -6 c17 -4 31 -10 33 -13 4 -11 86 1 94 13 4 6 8 -4
8 -21 0 -32 -1 -33 -42 -30 -37 3 -42 1 -52 -25 -12 -32 -46 -39 -46 -9 0 21
-40 56 -50 43 -3 -4 -17 -13 -32 -19 -16 -7 -28 -17 -28 -23 0 -5 -5 -10 -10
-10 -6 0 -23 -11 -38 -25 -15 -14 -32 -25 -38 -25 -6 0 -17 -7 -24 -16 -11
-13 -8 -20 20 -47 31 -31 33 -21 2 15 -20 24 -5 41 30 34 39 -8 74 10 58 29
-10 12 -6 13 23 8 41 -6 57 11 27 29 -23 15 -26 28 -5 28 32 0 44 -61 24 -119
-9 -27 -16 -31 -45 -31 -31 0 -34 -3 -34 -30 0 -28 -2 -30 -40 -30 -59 0 -113
51 -117 111 -1 24 -4 55 -5 69 -3 21 1 24 19 22 18 -3 21 0 16 14 -5 13 -3 15
13 7 30 -15 87 -16 81 -1 -2 7 -11 13 -19 12 -7 -1 -15 7 -15 17 -1 14 5 19
22 19 18 0 23 4 19 15 -5 12 4 15 45 15 47 0 53 -3 92 -45z m380 -70 c27 6 31
5 26 -10 -4 -9 -7 -21 -7 -27 0 -7 -4 -7 -13 0 -15 13 -43 -1 -33 -17 4 -6 17
-10 29 -9 12 0 34 -4 48 -10 19 -8 30 -7 38 1 13 13 26 3 16 -12 -3 -6 -37
-11 -75 -11 -61 0 -71 -3 -88 -25 -25 -31 -52 -34 -45 -4 5 17 2 20 -18 17
-13 -2 -23 -9 -21 -16 1 -6 -5 -12 -14 -12 -11 0 -15 -6 -12 -18 4 -15 1 -18
-18 -14 -28 5 -31 17 -6 27 16 6 16 7 -1 20 -16 11 -16 13 -1 19 8 3 28 6 44
6 33 0 53 21 43 45 -5 15 -3 17 11 12 28 -11 40 3 17 20 -12 8 -21 18 -21 23
0 15 34 17 52 2 11 -9 27 -12 49 -7z"/>
<path d="M1501 4844 c-16 -11 -21 -23 -17 -37 3 -14 -3 -30 -17 -46 -15 -16
-18 -25 -9 -28 6 -3 12 -11 12 -19 0 -16 16 -19 25 -4 3 5 14 1 25 -10 27 -27
52 -25 82 8 67 71 62 114 -14 137 -63 18 -59 18 -87 -1z"/>
<path d="M1036 4198 c-20 -28 -20 -59 -2 -102 18 -42 29 -49 69 -42 49 9 89
51 85 89 -3 28 -7 32 -37 35 -19 2 -46 12 -59 23 -31 24 -37 24 -56 -3z"/>
<path d="M882 3778 c-15 -15 -16 -82 -2 -109 6 -10 18 -19 26 -19 9 0 22 -7
30 -15 9 -8 22 -15 30 -15 12 0 12 4 4 20 -11 20 -6 40 9 40 5 0 11 -9 14 -20
3 -14 10 -18 22 -14 9 4 14 12 11 19 -2 7 0 17 6 23 12 12 2 32 -16 32 -8 0
-16 9 -19 21 -4 15 -12 20 -30 17 -13 -1 -32 5 -41 15 -21 20 -28 21 -44 5z"/>
<path d="M484 3586 c-34 -15 -73 -74 -81 -123 -5 -28 -1 -34 28 -52 37 -23
107 -36 137 -27 11 4 28 18 37 32 15 24 15 27 0 51 -10 14 -25 27 -34 30 -13
3 -16 12 -13 34 3 19 -2 37 -13 49 -21 23 -21 23 -61 6z"/>
<path d="M2925 2499 c-28 -14 -55 -18 -87 -16 -43 4 -45 3 -29 -12 10 -9 35
-38 56 -64 58 -73 114 -101 200 -101 90 0 141 27 207 109 27 33 56 63 66 67 9
3 -6 4 -34 1 -39 -4 -62 0 -99 16 -55 24 -80 26 -115 8 -20 -10 -30 -11 -50 0
-34 17 -68 15 -115 -8z"/>
<path d="M1089 2118 c-32 -34 -59 -69 -59 -75 0 -9 19 -13 63 -13 76 0 150 32
155 68 3 19 -1 22 -27 22 -26 0 -30 3 -28 27 2 22 -3 29 -22 31 -18 3 -37 -11
-82 -60z"/>
<path d="M2420 962 l-55 -7 -3 -103 c-2 -87 50 -659 74 -814 l6 -38 629 0
c346 0 629 1 629 3 0 1 18 169 40 372 45 415 51 571 23 583 -10 4 -72 7 -138
6 -135 -1 -211 -17 -313 -67 -73 -35 -188 -137 -217 -191 -11 -20 -22 -36 -25
-36 -3 0 -14 16 -25 36 -29 55 -146 158 -217 193 -34 17 -90 38 -123 46 -70
18 -206 26 -285 17z"/>
</g>
</svg>
