<svg width="30" height="30" viewBox="0 0 30 30" fill="none" xmlns="http://www.w3.org/2000/svg">
<path d="M28.125 3.64706V0H3.75V3.64706H2.7825C1.24875 3.64706 0 4.87794 0 6.39147V11.8438C0 13.3574 1.24875 14.5882 2.7825 14.5882H14.0775C14.5931 14.5882 15.015 14.9985 15.015 15.5V18.2353H13.125V31H18.75V18.2353H16.89V15.5C16.89 13.9919 15.6281 12.7647 14.0775 12.7647H2.7825C2.28375 12.7647 1.875 12.3508 1.875 11.8438V6.39147C1.875 5.88453 2.28375 5.47059 2.7825 5.47059H3.75V10.9412H28.125V5.47059H30V3.64706H28.125ZM16.875 29.1765H15V20.0588H16.875V29.1765ZM26.25 9.11765H5.625V1.82353H26.25V9.11765Z" fill="#181818"/>
</svg>
