<svg width="29" height="28" viewBox="0 0 29 28" fill="none" xmlns="http://www.w3.org/2000/svg">
<path d="M28.4899 16.6598L13.3622 1.517L13.1336 1.74268C11.9941 0.621053 10.4861 0.00169687 8.88082 0C8.88082 0 8.88082 0 8.87912 0C7.26194 0 5.73859 0.627841 4.59394 1.76644C3.44759 2.90504 2.81641 4.41864 2.81641 6.03236C2.81641 7.62911 3.44076 9.12914 4.56835 10.2627L0.801765 14.011C0.284882 14.5269 0 15.209 0 15.9336C0 16.6615 0.283176 17.342 0.796647 17.851L9.00365 26.0961C9.51882 26.6086 10.2046 26.8919 10.933 26.8919C11.6648 26.8919 12.3506 26.6069 12.8658 26.0927L22.3471 16.6615L28.4899 16.6598ZM4.52229 6.03066C4.52229 4.8734 4.97606 3.78571 5.8 2.96612C6.62394 2.14823 7.71571 1.69687 8.87912 1.69687C8.88082 1.69687 8.88082 1.69687 8.88082 1.69687C10.0306 1.69687 11.1087 2.14145 11.9275 2.94237L5.77612 9.06297C4.96923 8.24677 4.52229 7.17435 4.52229 6.03066ZM11.6563 24.8947C11.4635 25.0865 11.2042 25.1951 10.9313 25.1951C10.6584 25.1951 10.4008 25.0899 10.2114 24.8998L4.00882 18.6655H17.9186L11.6563 24.8947ZM19.6245 16.9687H2.31829L2.00612 16.6531C1.81165 16.4613 1.70588 16.2068 1.70588 15.9353C1.70588 15.6621 1.81335 15.4059 2.00782 15.2107L13.3588 3.91976L24.3924 14.9647L21.6391 14.9664L19.6245 16.9687ZM26.7619 20.2928L26.0676 19.2679L25.3545 20.2826C24.8104 21.0581 23.0294 23.695 23.0294 25.0305C23.0294 26.668 24.3685 28 26.0147 28C27.6609 28 29 26.6663 29 25.0288C29 23.7018 27.2873 21.0683 26.7619 20.2928ZM26.0147 26.3014C25.3102 26.3014 24.7353 25.7296 24.7353 25.0288C24.7353 24.6215 25.3306 23.4677 26.042 22.3291C26.7244 23.466 27.2941 24.6181 27.2941 25.0288C27.2941 25.7296 26.7192 26.3014 26.0147 26.3014Z" fill="#181818"/>
</svg>
